Coordinates
version=1
nRows=19
nColumns=36
inDegrees=yes

Units are S.I. units (second, meters, Newtons, ...)
If the header above contains a line with 'inDegrees', this indicates whether rotational values are in degrees (yes) or radians (no).

endheader
time	pelvis_tilt	pelvis_list	pelvis_rotation	pelvis_tx	pelvis_ty	pelvis_tz	hip_flexion_r	hip_adduction_r	hip_rotation_r	knee_angle_r	knee_angle_r_beta	ankle_angle_r	subtalar_angle_r	mtp_angle_r	hip_flexion_l	hip_adduction_l	hip_rotation_l	knee_angle_l	knee_angle_l_beta	ankle_angle_l	subtalar_angle_l	mtp_angle_l	lumbar_extension	lumbar_bending	lumbar_rotation	arm_flex_r	arm_add_r	arm_rot_r	elbow_flex_r	pro_sup_r	arm_flex_l	arm_add_l	arm_rot_l	elbow_flex_l	pro_sup_l
      1.89830510	     -7.31818188	     -1.85451104	     -5.55324787	     -1.06771205	      1.33847374	     -0.05036624	     12.52905133	      4.51384888	     10.30306566	     11.77592107	      0.20552860	      4.68156182	    -10.62788337	     -7.49999987	      7.26956613	     -2.89402126	      3.87586953	      6.44699467	      0.11252128	      5.79081791	     -9.56370435	     -7.49999987	     -2.17635228	      0.55080945	     -0.35493778	     -6.96153789	     -9.77219473	      9.58050477	     40.89105701	     84.29326586	     -7.71893197	    -10.21524339	      0.64019064	     44.98816392	     87.76017701
      1.91525420	     -7.14068334	     -1.66929565	     -5.26398500	     -1.06773140	      1.33850953	     -0.04034448	     11.88249102	      4.45556625	     10.44158442	     10.51218450	      0.18347223	      4.24920809	    -10.77681603	     -7.49999987	      7.33066615	     -2.83499371	      3.73046354	      6.71796133	      0.11725054	      6.00761581	     -9.26301246	     -7.49999987	     -2.39841161	      0.31662254	     -0.06384206	     -6.49503352	     -9.40020963	      9.62455995	     39.98536156	     84.18686521	     -7.11020127	    -10.18097821	      0.45764779	     43.96169792	     87.77679048
      1.93220340	     -7.15943935	     -1.55023840	     -4.78752636	     -1.06804311	      1.33819080	     -0.04075802	     11.57110629	      4.35274953	      9.98327778	      9.62222240	      0.16793946	      4.09861103	    -10.26074286	     -7.49999987	      7.75215904	     -2.76979264	      4.08183921	      7.19049578	      0.12549783	      6.00848150	     -9.23365351	     -7.49999987	     -2.37106550	      0.29879822	      0.17781427	     -6.17723607	     -9.22815530	      9.88703330	     39.16351891	     83.90318775	     -6.31812381	    -10.13053396	      0.80886632	     42.64439975	     87.81546876
      1.94915250	     -7.20559587	     -1.40496273	     -4.25104840	     -1.06755245	      1.33785545	     -0.04067630	     11.28691141	      4.17663383	      9.54764862	      9.02255150	      0.15747323	      3.90081771	    -10.22614588	     -7.49999987	      8.27940423	     -2.64293864	      4.19836692	      7.71739470	      0.13469395	      5.91455265	     -9.09785891	     -7.49999987	     -2.52693848	      0.29741453	      1.15936121	     -6.78153933	     -9.15465040	      8.68741169	     39.64466278	     84.66533929	     -4.89871921	    -10.35684686	      2.51245494	     41.15150366	     89.86767685
      1.96610170	     -7.06209734	     -1.26632802	     -3.70077688	     -1.06083532	      1.33760333	     -0.03655401	     10.77259983	      4.00605783	      9.05086122	      8.66348542	      0.15120635	      3.77305224	    -10.20828909	     -7.49999987	      8.27634246	     -2.61448395	      4.29981944	      8.10510598	      0.14146079	      5.99281508	     -8.58707262	     -7.49999987	     -2.62389207	      0.21556232	      1.56639717	     -6.98925322	     -9.04753769	      8.54184026	     39.52535864	     84.87357383	     -4.39298896	    -10.23637485	      2.62791505	     40.06903399	     90.01790614
      1.98305080	     -7.02423430	     -1.12812292	     -3.12234959	     -1.06053063	      1.33363334	     -0.03625510	     10.13834564	      3.81173776	      8.60466798	      7.96676963	      0.13904636	      3.69470519	    -10.18921002	     -7.49999987	      8.42458781	     -2.54831293	      4.47370470	      8.45802842	      0.14762044	      6.13577116	     -8.15231782	     -7.49999987	     -2.55327559	      0.18681399	      2.66468247	     -7.91710221	     -8.94357326	      7.16791834	     40.22767311	     84.76693270	     -3.36948295	    -10.32118696	      5.08164487	     38.74672451	     89.32500396
      2.00000000	     -7.04097389	     -1.02341109	     -2.72487062	     -1.05387336	      1.33717983	     -0.03227563	      9.42327218	      3.76285043	      8.48945331	      7.04372161	      0.12293613	      3.63637353	     -9.99846054	     -7.49999987	      8.29385832	     -2.58384433	      4.51705791	      8.41643539	      0.14689451	      6.07821902	     -7.80064351	     -7.49999987	     -2.41185098	      0.14354146	      2.82346245	     -8.21321765	     -8.94127169	      7.07471518	     40.45690346	     84.87850864	     -3.62542223	    -10.14210824	      5.11432715	     38.40169321	     89.34058978
      2.01694910	     -6.79906432	     -0.89366824	     -2.42626493	     -1.04673212	      1.33305526	     -0.02777984	      8.29006669	      3.72002022	      8.64953937	      6.13784511	      0.10712561	      3.88518383	     -9.72895831	     -7.49999987	      7.67454776	     -2.65351704	      4.33528241	      8.26844479	      0.14431159	      6.34961748	     -7.17521496	     -7.49999987	     -2.39445026	      0.03286937	      3.86240579	     -9.63659258	     -8.68347564	      4.85695439	     41.78051215	     85.60339258	     -3.25505458	    -10.11396002	      6.63979230	     37.27365789	     88.83408349
      2.03389830	     -6.88406630	     -0.69349555	     -2.24294661	     -1.04690564	      1.33697165	     -0.02763300	      7.69694814	      3.57003034	      8.75472622	      5.47343640	      0.09552949	      4.04915360	     -9.63481310	     -7.49999987	      7.41276373	     -2.59617936	      4.41964538	      8.00770322	      0.13976079	      6.31894974	     -7.02956803	     -7.49999987	     -1.96230654	     -0.10627322	      4.00569555	     -9.97677724	     -8.77432574	      4.77361408	     41.98144916	     85.66229816	     -3.92740696	     -9.92088950	      6.61748563	     36.98534093	     88.82080823
      2.05084750	     -6.56393242	     -0.47430837	     -2.18827646	     -1.04671615	      1.33336589	     -0.02750370	      6.79197002	      3.35361423	      8.87038821	      4.90363329	      0.08558455	      4.29681538	     -9.49415968	     -7.49999987	      6.76276144	     -2.45716894	      4.25474656	      7.73683718	      0.13503328	      6.47108985	     -6.86518053	     -7.49999987	     -2.15587712	     -0.25864187	      4.41191906	    -10.71659790	     -9.04033136	      4.24241136	     43.28029373	     86.19984698	     -4.37371133	     -9.42245945	      5.92672236	     36.99165414	     89.02327412
      2.06779660	     -6.45284733	     -0.28267402	     -2.38436107	     -1.04019026	      1.32994151	     -0.02260785	      6.12976435	      3.29328832	      9.47851110	      4.51409181	      0.07878576	      4.27505291	     -9.97075435	     -7.49999987	      6.20965268	     -2.45218463	      3.92297938	      7.44714357	      0.12997718	      6.58434284	     -6.58804976	     -7.49999987	     -1.89804042	     -0.45729394	      4.81861218	    -11.38012336	     -9.09216374	      3.95893629	     44.25547347	     84.63864938	     -5.33641994	     -9.11633699	      5.25302240	     37.49075675	     86.94322697
      2.08474580	     -6.47454104	     -0.14449070	     -2.48253764	     -1.03980131	      1.33051742	     -0.02199622	      5.63971309	      3.22833888	      9.58887952	      4.07377738	      0.07110083	      4.49538890	     -9.88230463	     -7.49999987	      6.03069689	     -2.45111230	      3.63656465	      7.38818405	      0.12894814	      6.76123624	     -6.49643962	     -7.49999987	     -1.55971834	     -0.49012234	      5.11269330	    -11.94491632	     -9.31033148	      3.74947304	     45.18690548	     84.06619394	     -6.30151659	     -8.90162393	      4.99810647	     38.11039307	     86.27281845
      2.10169490	     -6.33063170	     -0.00162160	     -2.82810838	     -1.04002851	      1.33161909	     -0.02173429	      5.12360750	      3.14538627	      9.99648815	      3.70406351	      0.06464810	      4.65949360	     -9.84950577	     -7.49999987	      5.87959151	     -2.41056386	      3.22337160	      7.69026363	      0.13422042	      6.90125193	     -6.54199185	     -7.49999987	     -1.54502074	     -0.55444930	      5.66330063	    -12.50895153	     -9.50206133	      3.38840933	     46.28681115	     83.71617135	     -7.11047563	     -8.55566209	      4.33879639	     39.03290991	     85.81376822
      2.11864410	     -6.44024503	      0.14533874	     -3.03179019	     -1.03971233	      1.33200310	     -0.02108038	      4.96556091	      3.04258122	     10.34103471	      3.37512025	      0.05890696	      4.58433350	    -10.06290705	     -7.49999987	      6.07865264	     -2.33554751	      2.89729888	      8.03309229	      0.14020391	      6.94694897	     -6.53884987	     -7.49999987	     -1.35570894	     -0.59501860	      5.80227404	    -13.10899724	     -9.28888563	      1.66397564	     47.59451406	     86.82114557	     -8.26877342	     -7.92684261	      1.55752453	     40.54985829	     89.23941848
      2.13559320	     -6.40790150	      0.32019676	     -3.32377364	     -1.04023504	      1.33270799	     -0.01151648	      4.72280096	      3.03167849	     10.65665457	      3.04274156	      0.05310586	      4.76363664	     -9.96447740	     -7.49999987	      6.12831908	     -2.38982896	      2.65487116	      8.43693481	      0.14725229	      7.02725202	     -6.68411882	     -7.49999987	     -1.23729976	     -0.82205811	      5.99736296	    -13.21584936	     -9.21720810	      1.71642029	     47.63406179	     86.86894935	     -8.60050325	     -7.98188378	      1.56150030	     40.59624369	     89.30146368
      2.15254240	     -6.62840623	      0.52356446	     -3.67814183	     -1.04645839	      1.33669314	     -0.01529076	      5.07987414	      2.95019929	     10.90735008	      2.99909578	      0.05234410	      4.46072019	    -10.25868770	     -7.49999987	      6.65994103	     -2.36041885	      2.41532038	      8.79210445	      0.15345117	      7.02039477	     -6.59055149	     -7.49999987	     -1.15891511	     -0.98348855	      6.33237397	    -13.21913218	     -9.24840153	      1.70069656	     48.02180440	     87.10017574	     -8.77739961	     -7.87285028	      1.37630182	     41.36830474	     89.67087207
      2.16949150	     -6.61436329	      0.71481802	     -3.94534055	     -1.04018252	      1.33631807	     -0.01084952	      4.97702240	      2.86920451	     11.12981940	      2.75532944	      0.04808957	      4.35305158	    -10.10763436	     -7.49999987	      6.67346990	     -2.34799644	      2.36228192	      8.92469125	      0.15576525	      6.96540776	     -6.59733094	     -7.49999987	     -1.14257650	     -1.22711520	      6.40524638	    -13.16266572	     -9.13284921	      1.68308646	     48.07961700	     87.11975391	     -8.89087053	     -7.83038159	      1.33997467	     41.41478243	     89.71147574
      2.18644070	     -6.56837945	      0.84059627	     -4.30469699	     -1.03985123	      1.33624257	     -0.01010126	      4.75957902	      2.79250211	     11.31648937	      2.52081933	      0.04399660	      4.29904425	    -10.03911796	     -7.49999987	      6.52318236	     -2.43790934	      1.90985205	      8.71005135	      0.15201907	      7.05822809	     -6.33042992	     -7.49999987	     -1.25045991	     -1.40389867	      6.67832170	    -13.12112552	     -9.11337581	      1.60076405	     48.16239934	     85.60692743	     -9.24354043	     -7.67744965	      0.95931867	     42.17458648	     88.27100422
      2.20338980	     -6.53332925	      0.98233265	     -4.60353353	     -1.04009397	      1.33654334	     -0.00981007	      4.54105766	      2.64793561	     11.28554070	      2.18801541	      0.03818807	      4.07502680	     -9.96908231	     -7.49999987	      6.43168397	     -2.44790514	      1.61120931	      8.53954919	      0.14904325	      7.03411662	     -6.21892438	     -7.49999987	     -1.27320135	     -1.62161616	      6.79196989	    -12.90949029	     -9.06663283	      1.85249587	     47.78370349	     83.88688729	     -9.30637586	     -7.48099604	      0.91386633	     42.25076372	     86.67913039
